<?xml version="1.0" encoding="UTF-8" standalone="no"?>
<!DOCTYPE svg PUBLIC "-//W3C//DTD SVG 1.1//EN"
 "http://www.w3.org/Graphics/SVG/1.1/DTD/svg11.dtd">
<!-- Generated by graphviz version 2.43.0 (0)
 -->
<!-- Title: sokoengine::game::IllegalMoveError Pages: 1 -->
<svg width="150pt" height="207pt"
 viewBox="0.00 0.00 150.00 207.00" xmlns="http://www.w3.org/2000/svg" xmlns:xlink="http://www.w3.org/1999/xlink">
<g id="graph0" class="graph" transform="scale(1 1) rotate(0) translate(4 203)">
<title>sokoengine::game::IllegalMoveError</title>
<!-- Node1 -->
<g id="node1" class="node">
<title>Node1</title>
<g id="a_node1"><a xlink:title=" ">
<polygon fill="#bfbfbf" stroke="black" points="0,-0.5 0,-30.5 142,-30.5 142,-0.5 0,-0.5"/>
<text text-anchor="start" x="8" y="-18.5" font-family="Helvetica,sans-Serif" font-size="10.00">sokoengine::game::Illegal</text>
<text text-anchor="middle" x="71" y="-7.5" font-family="Helvetica,sans-Serif" font-size="10.00">MoveError</text>
</a>
</g>
</g>
<!-- Node2 -->
<g id="node2" class="node">
<title>Node2</title>
<g id="a_node2"><a xlink:title="STL class.">
<polygon fill="none" stroke="#bfbfbf" points="9.5,-67.5 9.5,-86.5 132.5,-86.5 132.5,-67.5 9.5,-67.5"/>
<text text-anchor="middle" x="71" y="-74.5" font-family="Helvetica,sans-Serif" font-size="10.00">std::invalid_argument</text>
</a>
</g>
</g>
<!-- Node2&#45;&gt;Node1 -->
<g id="edge1" class="edge">
<title>Node2&#45;&gt;Node1</title>
<path fill="none" stroke="midnightblue" d="M71,-57.23C71,-48.59 71,-38.5 71,-30.52"/>
<polygon fill="midnightblue" stroke="midnightblue" points="67.5,-57.48 71,-67.48 74.5,-57.48 67.5,-57.48"/>
</g>
<!-- Node3 -->
<g id="node3" class="node">
<title>Node3</title>
<g id="a_node3"><a xlink:title="STL class.">
<polygon fill="none" stroke="#bfbfbf" points="26.5,-123.5 26.5,-142.5 115.5,-142.5 115.5,-123.5 26.5,-123.5"/>
<text text-anchor="middle" x="71" y="-130.5" font-family="Helvetica,sans-Serif" font-size="10.00">std::logic_error</text>
</a>
</g>
</g>
<!-- Node3&#45;&gt;Node2 -->
<g id="edge2" class="edge">
<title>Node3&#45;&gt;Node2</title>
<path fill="none" stroke="midnightblue" d="M71,-112.8C71,-103.91 71,-93.78 71,-86.75"/>
<polygon fill="midnightblue" stroke="midnightblue" points="67.5,-113.08 71,-123.08 74.5,-113.08 67.5,-113.08"/>
</g>
<!-- Node4 -->
<g id="node4" class="node">
<title>Node4</title>
<g id="a_node4"><a xlink:title="STL class.">
<polygon fill="none" stroke="#bfbfbf" points="28,-179.5 28,-198.5 114,-198.5 114,-179.5 28,-179.5"/>
<text text-anchor="middle" x="71" y="-186.5" font-family="Helvetica,sans-Serif" font-size="10.00">std::exception</text>
</a>
</g>
</g>
<!-- Node4&#45;&gt;Node3 -->
<g id="edge3" class="edge">
<title>Node4&#45;&gt;Node3</title>
<path fill="none" stroke="midnightblue" d="M71,-168.8C71,-159.91 71,-149.78 71,-142.75"/>
<polygon fill="midnightblue" stroke="midnightblue" points="67.5,-169.08 71,-179.08 74.5,-169.08 67.5,-169.08"/>
</g>
</g>
</svg>
