<?xml version="1.0" encoding="UTF-8" standalone="no"?>
<!DOCTYPE svg PUBLIC "-//W3C//DTD SVG 1.1//EN"
 "http://www.w3.org/Graphics/SVG/1.1/DTD/svg11.dtd">
<!-- Generated by graphviz version 2.43.0 (0)
 -->
<!-- Title: Graphical Class Hierarchy Pages: 1 -->
<svg width="587pt" height="333pt"
 viewBox="0.00 0.00 587.00 333.00" xmlns="http://www.w3.org/2000/svg" xmlns:xlink="http://www.w3.org/1999/xlink">
<g id="graph0" class="graph" transform="scale(1 1) rotate(0) translate(4 329)">
<title>Graphical Class Hierarchy</title>
<!-- Node10 -->
<g id="node1" class="node">
<title>Node10</title>
<g id="a_node1"><a xlink:title="STL class.">
<polygon fill="none" stroke="#bfbfbf" points="0,-80 0,-99 86,-99 86,-80 0,-80"/>
<text text-anchor="middle" x="43" y="-87" font-family="Helvetica,sans-Serif" font-size="10.00">std::exception</text>
</a>
</g>
</g>
<!-- Node11 -->
<g id="node2" class="node">
<title>Node11</title>
<g id="a_node2"><a xlink:title="STL class.">
<polygon fill="none" stroke="#bfbfbf" points="122,-80 122,-99 211,-99 211,-80 122,-80"/>
<text text-anchor="middle" x="166.5" y="-87" font-family="Helvetica,sans-Serif" font-size="10.00">std::logic_error</text>
</a>
</g>
</g>
<!-- Node10&#45;&gt;Node11 -->
<g id="edge1" class="edge">
<title>Node10&#45;&gt;Node11</title>
<path fill="none" stroke="midnightblue" d="M96.34,-89.5C104.82,-89.5 113.52,-89.5 121.77,-89.5"/>
<polygon fill="midnightblue" stroke="midnightblue" points="96.15,-86 86.15,-89.5 96.15,-93 96.15,-86"/>
</g>
<!-- Node12 -->
<g id="node3" class="node">
<title>Node12</title>
<g id="a_node3"><a xlink:title="STL class.">
<polygon fill="none" stroke="#bfbfbf" points="247,-153 247,-172 370,-172 370,-153 247,-153"/>
<text text-anchor="middle" x="308.5" y="-160" font-family="Helvetica,sans-Serif" font-size="10.00">std::invalid_argument</text>
</a>
</g>
</g>
<!-- Node11&#45;&gt;Node12 -->
<g id="edge2" class="edge">
<title>Node11&#45;&gt;Node12</title>
<path fill="none" stroke="midnightblue" d="M195,-103.84C222.87,-118.37 265.19,-140.44 289.19,-152.95"/>
<polygon fill="midnightblue" stroke="midnightblue" points="196.29,-100.56 185.8,-99.04 193.05,-106.77 196.29,-100.56"/>
</g>
<!-- Node19 -->
<g id="node10" class="node">
<title>Node19</title>
<g id="a_node10"><a xlink:title="STL class.">
<polygon fill="none" stroke="#bfbfbf" points="258,-61 258,-80 359,-80 359,-61 258,-61"/>
<text text-anchor="middle" x="308.5" y="-68" font-family="Helvetica,sans-Serif" font-size="10.00">std::out_of_range</text>
</a>
</g>
</g>
<!-- Node11&#45;&gt;Node19 -->
<g id="edge9" class="edge">
<title>Node11&#45;&gt;Node19</title>
<path fill="none" stroke="midnightblue" d="M220.95,-82.25C233,-80.61 245.74,-78.88 257.64,-77.27"/>
<polygon fill="midnightblue" stroke="midnightblue" points="220.47,-78.78 211.03,-83.59 221.41,-85.72 220.47,-78.78"/>
</g>
<!-- Node0 -->
<g id="node4" class="node">
<title>Node0</title>
<g id="a_node4"><a xlink:href="classsokoengine_1_1game_1_1BoxGoalSwitchError.html" target="_top" xlink:title=" ">
<polygon fill="none" stroke="black" points="416,-294.5 416,-324.5 569,-324.5 569,-294.5 416,-294.5"/>
<text text-anchor="start" x="424" y="-312.5" font-family="Helvetica,sans-Serif" font-size="10.00">sokoengine::game::BoxGoal</text>
<text text-anchor="middle" x="492.5" y="-301.5" font-family="Helvetica,sans-Serif" font-size="10.00">SwitchError</text>
</a>
</g>
</g>
<!-- Node12&#45;&gt;Node0 -->
<g id="edge3" class="edge">
<title>Node12&#45;&gt;Node0</title>
<path fill="none" stroke="midnightblue" d="M319.03,-181.04C333.91,-208.12 365.21,-258.21 406,-285.5 411.13,-288.93 416.74,-291.87 422.56,-294.4"/>
<polygon fill="midnightblue" stroke="midnightblue" points="322.1,-179.37 314.31,-172.19 315.93,-182.66 322.1,-179.37"/>
</g>
<!-- Node14 -->
<g id="node5" class="node">
<title>Node14</title>
<g id="a_node5"><a xlink:href="classsokoengine_1_1game_1_1CellAlreadyOccupiedError.html" target="_top" xlink:title=" ">
<polygon fill="none" stroke="black" points="408.5,-245.5 408.5,-275.5 576.5,-275.5 576.5,-245.5 408.5,-245.5"/>
<text text-anchor="start" x="416.5" y="-263.5" font-family="Helvetica,sans-Serif" font-size="10.00">sokoengine::game::CellAlready</text>
<text text-anchor="middle" x="492.5" y="-252.5" font-family="Helvetica,sans-Serif" font-size="10.00">OccupiedError</text>
</a>
</g>
</g>
<!-- Node12&#45;&gt;Node14 -->
<g id="edge4" class="edge">
<title>Node12&#45;&gt;Node14</title>
<path fill="none" stroke="midnightblue" d="M326.84,-179.13C345.16,-195.85 375.55,-221.26 406,-236.5 412.76,-239.88 420.06,-242.85 427.45,-245.43"/>
<polygon fill="midnightblue" stroke="midnightblue" points="329.03,-176.38 319.32,-172.13 324.26,-181.51 329.03,-176.38"/>
</g>
<!-- Node15 -->
<g id="node6" class="node">
<title>Node15</title>
<g id="a_node6"><a xlink:href="classsokoengine_1_1game_1_1IllegalMoveError.html" target="_top" xlink:title=" ">
<polygon fill="none" stroke="black" points="421.5,-196.5 421.5,-226.5 563.5,-226.5 563.5,-196.5 421.5,-196.5"/>
<text text-anchor="start" x="429.5" y="-214.5" font-family="Helvetica,sans-Serif" font-size="10.00">sokoengine::game::Illegal</text>
<text text-anchor="middle" x="492.5" y="-203.5" font-family="Helvetica,sans-Serif" font-size="10.00">MoveError</text>
</a>
</g>
</g>
<!-- Node12&#45;&gt;Node15 -->
<g id="edge5" class="edge">
<title>Node12&#45;&gt;Node15</title>
<path fill="none" stroke="midnightblue" d="M354.78,-174.69C379.26,-181.28 409.7,-189.48 435.65,-196.46"/>
<polygon fill="midnightblue" stroke="midnightblue" points="355.59,-171.28 345.02,-172.06 353.77,-178.04 355.59,-171.28"/>
</g>
<!-- Node16 -->
<g id="node7" class="node">
<title>Node16</title>
<g id="a_node7"><a xlink:href="classsokoengine_1_1game_1_1NonPlayableBoardError.html" target="_top" xlink:title=" ">
<polygon fill="none" stroke="black" points="406,-147.5 406,-177.5 579,-177.5 579,-147.5 406,-147.5"/>
<text text-anchor="start" x="414" y="-165.5" font-family="Helvetica,sans-Serif" font-size="10.00">sokoengine::game::NonPlayable</text>
<text text-anchor="middle" x="492.5" y="-154.5" font-family="Helvetica,sans-Serif" font-size="10.00">BoardError</text>
</a>
</g>
</g>
<!-- Node12&#45;&gt;Node16 -->
<g id="edge6" class="edge">
<title>Node12&#45;&gt;Node16</title>
<path fill="none" stroke="midnightblue" d="M380.22,-162.5C388.63,-162.5 397.28,-162.5 405.87,-162.5"/>
<polygon fill="midnightblue" stroke="midnightblue" points="380.1,-159 370.1,-162.5 380.1,-166 380.1,-159"/>
</g>
<!-- Node17 -->
<g id="node8" class="node">
<title>Node17</title>
<g id="a_node8"><a xlink:href="classsokoengine_1_1game_1_1PieceNotFoundError.html" target="_top" xlink:title=" ">
<polygon fill="none" stroke="black" points="415,-98.5 415,-128.5 570,-128.5 570,-98.5 415,-98.5"/>
<text text-anchor="start" x="423" y="-116.5" font-family="Helvetica,sans-Serif" font-size="10.00">sokoengine::game::PieceNot</text>
<text text-anchor="middle" x="492.5" y="-105.5" font-family="Helvetica,sans-Serif" font-size="10.00">FoundError</text>
</a>
</g>
</g>
<!-- Node12&#45;&gt;Node17 -->
<g id="edge7" class="edge">
<title>Node12&#45;&gt;Node17</title>
<path fill="none" stroke="midnightblue" d="M354.78,-150.31C379.26,-143.72 409.7,-135.52 435.65,-128.54"/>
<polygon fill="midnightblue" stroke="midnightblue" points="353.77,-146.96 345.02,-152.94 355.59,-153.72 353.77,-146.96"/>
</g>
<!-- Node18 -->
<g id="node9" class="node">
<title>Node18</title>
<g id="a_node9"><a xlink:href="classsokoengine_1_1game_1_1SokobanPlusDataError.html" target="_top" xlink:title=" ">
<polygon fill="none" stroke="black" points="416,-49.5 416,-79.5 569,-79.5 569,-49.5 416,-49.5"/>
<text text-anchor="start" x="424" y="-67.5" font-family="Helvetica,sans-Serif" font-size="10.00">sokoengine::game::Sokoban</text>
<text text-anchor="middle" x="492.5" y="-56.5" font-family="Helvetica,sans-Serif" font-size="10.00">PlusDataError</text>
</a>
</g>
</g>
<!-- Node12&#45;&gt;Node18 -->
<g id="edge8" class="edge">
<title>Node12&#45;&gt;Node18</title>
<path fill="none" stroke="midnightblue" d="M327.22,-145.91C345.62,-129.48 375.89,-104.64 406,-89.5 413.46,-85.75 421.58,-82.47 429.74,-79.62"/>
<polygon fill="midnightblue" stroke="midnightblue" points="324.68,-143.48 319.64,-152.8 329.39,-148.66 324.68,-143.48"/>
</g>
<!-- Node20 -->
<g id="node11" class="node">
<title>Node20</title>
<g id="a_node11"><a xlink:href="classsokoengine_1_1game_1_1InvalidPositionError.html" target="_top" xlink:title=" ">
<polygon fill="none" stroke="black" points="420,-0.5 420,-30.5 565,-30.5 565,-0.5 420,-0.5"/>
<text text-anchor="start" x="428" y="-18.5" font-family="Helvetica,sans-Serif" font-size="10.00">sokoengine::game::Invalid</text>
<text text-anchor="middle" x="492.5" y="-7.5" font-family="Helvetica,sans-Serif" font-size="10.00">PositionError</text>
</a>
</g>
</g>
<!-- Node19&#45;&gt;Node20 -->
<g id="edge10" class="edge">
<title>Node19&#45;&gt;Node20</title>
<path fill="none" stroke="midnightblue" d="M349.67,-57.85C366.98,-52.44 387.47,-46.09 406,-40.5 416.81,-37.24 428.41,-33.81 439.46,-30.56"/>
<polygon fill="midnightblue" stroke="midnightblue" points="348.38,-54.58 339.88,-60.91 350.47,-61.26 348.38,-54.58"/>
</g>
</g>
</svg>
