<?xml version="1.0" encoding="UTF-8" standalone="no"?>
<!DOCTYPE svg PUBLIC "-//W3C//DTD SVG 1.1//EN"
 "http://www.w3.org/Graphics/SVG/1.1/DTD/svg11.dtd">
<!-- Generated by graphviz version 2.43.0 (0)
 -->
<!-- Title: skin.hpp Pages: 1 -->
<svg width="426pt" height="140pt"
 viewBox="0.00 0.00 426.00 140.00" xmlns="http://www.w3.org/2000/svg" xmlns:xlink="http://www.w3.org/1999/xlink">
<g id="graph0" class="graph" transform="scale(1 1) rotate(0) translate(4 136)">
<title>skin.hpp</title>
<!-- Node1 -->
<g id="node1" class="node">
<title>Node1</title>
<g id="a_node1"><a xlink:title=" ">
<polygon fill="#bfbfbf" stroke="black" points="177,-112.5 177,-131.5 235,-131.5 235,-112.5 177,-112.5"/>
<text text-anchor="middle" x="206" y="-119.5" font-family="Helvetica,sans-Serif" font-size="10.00">skin.hpp</text>
</a>
</g>
</g>
<!-- Node2 -->
<g id="node2" class="node">
<title>Node2</title>
<g id="a_node2"><a xlink:href="direction_8hpp.html" target="_top" xlink:title=" ">
<polygon fill="none" stroke="black" points="0,-56.5 0,-75.5 80,-75.5 80,-56.5 0,-56.5"/>
<text text-anchor="middle" x="40" y="-63.5" font-family="Helvetica,sans-Serif" font-size="10.00">direction.hpp</text>
</a>
</g>
</g>
<!-- Node1&#45;&gt;Node2 -->
<g id="edge1" class="edge">
<title>Node1&#45;&gt;Node2</title>
<path fill="none" stroke="midnightblue" d="M179.7,-112.44C151.65,-103.32 107.06,-88.81 75.82,-78.65"/>
<polygon fill="midnightblue" stroke="midnightblue" points="76.77,-75.28 66.18,-75.52 74.61,-81.94 76.77,-75.28"/>
</g>
<!-- Node3 -->
<g id="node3" class="node">
<title>Node3</title>
<g id="a_node3"><a xlink:href="game__config_8hpp.html" target="_top" xlink:title=" ">
<polygon fill="none" stroke="black" points="98,-56.5 98,-75.5 198,-75.5 198,-56.5 98,-56.5"/>
<text text-anchor="middle" x="148" y="-63.5" font-family="Helvetica,sans-Serif" font-size="10.00">game_config.hpp</text>
</a>
</g>
</g>
<!-- Node1&#45;&gt;Node3 -->
<g id="edge2" class="edge">
<title>Node1&#45;&gt;Node3</title>
<path fill="none" stroke="midnightblue" d="M196.68,-112.32C188.11,-104.34 175.19,-92.31 164.81,-82.65"/>
<polygon fill="midnightblue" stroke="midnightblue" points="167.19,-80.09 157.49,-75.83 162.42,-85.21 167.19,-80.09"/>
</g>
<!-- Node5 -->
<g id="node5" class="node">
<title>Node5</title>
<g id="a_node5"><a xlink:href="tessellation_8hpp.html" target="_top" xlink:title=" ">
<polygon fill="none" stroke="black" points="216.5,-56.5 216.5,-75.5 311.5,-75.5 311.5,-56.5 216.5,-56.5"/>
<text text-anchor="middle" x="264" y="-63.5" font-family="Helvetica,sans-Serif" font-size="10.00">tessellation.hpp</text>
</a>
</g>
</g>
<!-- Node1&#45;&gt;Node5 -->
<g id="edge4" class="edge">
<title>Node1&#45;&gt;Node5</title>
<path fill="none" stroke="midnightblue" d="M215.32,-112.32C223.89,-104.34 236.81,-92.31 247.19,-82.65"/>
<polygon fill="midnightblue" stroke="midnightblue" points="249.58,-85.21 254.51,-75.83 244.81,-80.09 249.58,-85.21"/>
</g>
<!-- Node6 -->
<g id="node6" class="node">
<title>Node6</title>
<g id="a_node6"><a xlink:href="tile__shape_8hpp.html" target="_top" xlink:title=" ">
<polygon fill="none" stroke="black" points="330,-56.5 330,-75.5 418,-75.5 418,-56.5 330,-56.5"/>
<text text-anchor="middle" x="374" y="-63.5" font-family="Helvetica,sans-Serif" font-size="10.00">tile_shape.hpp</text>
</a>
</g>
</g>
<!-- Node1&#45;&gt;Node6 -->
<g id="edge6" class="edge">
<title>Node1&#45;&gt;Node6</title>
<path fill="none" stroke="midnightblue" d="M232.62,-112.44C261.01,-103.32 306.14,-88.81 337.75,-78.65"/>
<polygon fill="midnightblue" stroke="midnightblue" points="339.06,-81.91 347.5,-75.52 336.91,-75.24 339.06,-81.91"/>
</g>
<!-- Node4 -->
<g id="node4" class="node">
<title>Node4</title>
<g id="a_node4"><a xlink:href="numeric__types_8hpp.html" target="_top" xlink:title=" ">
<polygon fill="none" stroke="black" points="151,-0.5 151,-19.5 261,-19.5 261,-0.5 151,-0.5"/>
<text text-anchor="middle" x="206" y="-7.5" font-family="Helvetica,sans-Serif" font-size="10.00">numeric_types.hpp</text>
</a>
</g>
</g>
<!-- Node3&#45;&gt;Node4 -->
<g id="edge3" class="edge">
<title>Node3&#45;&gt;Node4</title>
<path fill="none" stroke="midnightblue" d="M157.32,-56.32C165.89,-48.34 178.81,-36.31 189.19,-26.65"/>
<polygon fill="midnightblue" stroke="midnightblue" points="191.58,-29.21 196.51,-19.83 186.81,-24.09 191.58,-29.21"/>
</g>
<!-- Node5&#45;&gt;Node4 -->
<g id="edge5" class="edge">
<title>Node5&#45;&gt;Node4</title>
<path fill="none" stroke="midnightblue" d="M254.68,-56.32C246.11,-48.34 233.19,-36.31 222.81,-26.65"/>
<polygon fill="midnightblue" stroke="midnightblue" points="225.19,-24.09 215.49,-19.83 220.42,-29.21 225.19,-24.09"/>
</g>
</g>
</svg>
