<?xml version="1.0" encoding="UTF-8" standalone="no"?>
<!DOCTYPE svg PUBLIC "-//W3C//DTD SVG 1.1//EN"
 "http://www.w3.org/Graphics/SVG/1.1/DTD/svg11.dtd">
<!-- Generated by graphviz version 2.43.0 (0)
 -->
<!-- Title: sokoengine.hpp Pages: 1 -->
<svg width="1183pt" height="196pt"
 viewBox="0.00 0.00 1183.00 196.00" xmlns="http://www.w3.org/2000/svg" xmlns:xlink="http://www.w3.org/1999/xlink">
<g id="graph0" class="graph" transform="scale(1 1) rotate(0) translate(4 192)">
<title>sokoengine.hpp</title>
<!-- Node1 -->
<g id="node1" class="node">
<title>Node1</title>
<g id="a_node1"><a xlink:title=" ">
<polygon fill="#bfbfbf" stroke="black" points="586.5,-168.5 586.5,-187.5 679.5,-187.5 679.5,-168.5 586.5,-168.5"/>
<text text-anchor="middle" x="633" y="-175.5" font-family="Helvetica,sans-Serif" font-size="10.00">sokoengine.hpp</text>
</a>
</g>
</g>
<!-- Node2 -->
<g id="node2" class="node">
<title>Node2</title>
<g id="a_node2"><a xlink:href="collection_8hpp.html" target="_top" xlink:title=" ">
<polygon fill="none" stroke="black" points="100.5,-112.5 100.5,-131.5 185.5,-131.5 185.5,-112.5 100.5,-112.5"/>
<text text-anchor="middle" x="143" y="-119.5" font-family="Helvetica,sans-Serif" font-size="10.00">collection.hpp</text>
</a>
</g>
</g>
<!-- Node1&#45;&gt;Node2 -->
<g id="edge1" class="edge">
<title>Node1&#45;&gt;Node2</title>
<path fill="none" stroke="midnightblue" d="M586.41,-173.34C507.89,-166.93 344.04,-152.51 195.74,-132.16"/>
<polygon fill="midnightblue" stroke="midnightblue" points="195.93,-128.65 185.54,-130.74 194.97,-135.58 195.93,-128.65"/>
</g>
<!-- Node5 -->
<g id="node5" class="node">
<title>Node5</title>
<g id="a_node5"><a xlink:href="puzzle_8hpp.html" target="_top" xlink:title=" ">
<polygon fill="none" stroke="black" points="203.5,-112.5 203.5,-131.5 272.5,-131.5 272.5,-112.5 203.5,-112.5"/>
<text text-anchor="middle" x="238" y="-119.5" font-family="Helvetica,sans-Serif" font-size="10.00">puzzle.hpp</text>
</a>
</g>
</g>
<!-- Node1&#45;&gt;Node5 -->
<g id="edge4" class="edge">
<title>Node1&#45;&gt;Node5</title>
<path fill="none" stroke="midnightblue" d="M586.28,-172.13C520.78,-165.05 397.71,-150.86 282.59,-131.98"/>
<polygon fill="midnightblue" stroke="midnightblue" points="282.98,-128.5 272.54,-130.32 281.84,-135.4 282.98,-128.5"/>
</g>
<!-- Node7 -->
<g id="node7" class="node">
<title>Node7</title>
<g id="a_node7"><a xlink:href="rle_8hpp.html" target="_top" xlink:title=" ">
<polygon fill="none" stroke="black" points="933,-112.5 933,-131.5 983,-131.5 983,-112.5 933,-112.5"/>
<text text-anchor="middle" x="958" y="-119.5" font-family="Helvetica,sans-Serif" font-size="10.00">rle.hpp</text>
</a>
</g>
</g>
<!-- Node1&#45;&gt;Node7 -->
<g id="edge7" class="edge">
<title>Node1&#45;&gt;Node7</title>
<path fill="none" stroke="midnightblue" d="M679.74,-170.68C736.52,-162.77 835.11,-148.26 919,-132 920.27,-131.75 921.55,-131.5 922.85,-131.23"/>
<polygon fill="midnightblue" stroke="midnightblue" points="923.84,-134.6 932.88,-129.07 922.37,-127.76 923.84,-134.6"/>
</g>
<!-- Node8 -->
<g id="node8" class="node">
<title>Node8</title>
<g id="a_node8"><a xlink:href="snapshot_8hpp.html" target="_top" xlink:title=" ">
<polygon fill="none" stroke="black" points="0,-112.5 0,-131.5 82,-131.5 82,-112.5 0,-112.5"/>
<text text-anchor="middle" x="41" y="-119.5" font-family="Helvetica,sans-Serif" font-size="10.00">snapshot.hpp</text>
</a>
</g>
</g>
<!-- Node1&#45;&gt;Node8 -->
<g id="edge8" class="edge">
<title>Node1&#45;&gt;Node8</title>
<path fill="none" stroke="midnightblue" d="M586.44,-174.63C494.13,-169.61 281.21,-156.43 92.27,-132.05"/>
<polygon fill="midnightblue" stroke="midnightblue" points="92.52,-128.55 82.15,-130.73 91.62,-135.49 92.52,-128.55"/>
</g>
<!-- Node9 -->
<g id="node9" class="node">
<title>Node9</title>
<g id="a_node9"><a xlink:href="board__cell_8hpp.html" target="_top" xlink:title=" ">
<polygon fill="none" stroke="black" points="1001,-112.5 1001,-131.5 1089,-131.5 1089,-112.5 1001,-112.5"/>
<text text-anchor="middle" x="1045" y="-119.5" font-family="Helvetica,sans-Serif" font-size="10.00">board_cell.hpp</text>
</a>
</g>
</g>
<!-- Node1&#45;&gt;Node9 -->
<g id="edge10" class="edge">
<title>Node1&#45;&gt;Node9</title>
<path fill="none" stroke="midnightblue" d="M679.56,-171.82C746.23,-164.26 872.97,-149.34 990.86,-132.12"/>
<polygon fill="midnightblue" stroke="midnightblue" points="991.39,-135.57 1000.78,-130.66 990.37,-128.65 991.39,-135.57"/>
</g>
<!-- Node10 -->
<g id="node10" class="node">
<title>Node10</title>
<g id="a_node10"><a xlink:href="board__graph_8hpp.html" target="_top" xlink:title=" ">
<polygon fill="none" stroke="black" points="291,-112.5 291,-131.5 389,-131.5 389,-112.5 291,-112.5"/>
<text text-anchor="middle" x="340" y="-119.5" font-family="Helvetica,sans-Serif" font-size="10.00">board_graph.hpp</text>
</a>
</g>
</g>
<!-- Node1&#45;&gt;Node10 -->
<g id="edge11" class="edge">
<title>Node1&#45;&gt;Node10</title>
<path fill="none" stroke="midnightblue" d="M586.57,-168.44C534.92,-158.92 451.49,-143.55 396.19,-133.36"/>
<polygon fill="midnightblue" stroke="midnightblue" points="396.68,-129.89 386.21,-131.52 395.41,-136.77 396.68,-129.89"/>
</g>
<!-- Node13 -->
<g id="node13" class="node">
<title>Node13</title>
<g id="a_node13"><a xlink:href="board__state_8hpp.html" target="_top" xlink:title=" ">
<polygon fill="none" stroke="black" points="640.5,-56.5 640.5,-75.5 735.5,-75.5 735.5,-56.5 640.5,-56.5"/>
<text text-anchor="middle" x="688" y="-63.5" font-family="Helvetica,sans-Serif" font-size="10.00">board_state.hpp</text>
</a>
</g>
</g>
<!-- Node1&#45;&gt;Node13 -->
<g id="edge17" class="edge">
<title>Node1&#45;&gt;Node13</title>
<path fill="none" stroke="midnightblue" d="M644.43,-168.32C654.4,-160.09 668.42,-146.82 676,-132 683.35,-117.63 686.24,-99.44 687.36,-85.95"/>
<polygon fill="midnightblue" stroke="midnightblue" points="690.86,-86.11 687.94,-75.92 683.87,-85.7 690.86,-86.11"/>
</g>
<!-- Node14 -->
<g id="node14" class="node">
<title>Node14</title>
<g id="a_node14"><a xlink:href="hashed__board__manager_8hpp.html" target="_top" xlink:title=" ">
<polygon fill="none" stroke="black" points="723,-112.5 723,-131.5 877,-131.5 877,-112.5 723,-112.5"/>
<text text-anchor="middle" x="800" y="-119.5" font-family="Helvetica,sans-Serif" font-size="10.00">hashed_board_manager.hpp</text>
</a>
</g>
</g>
<!-- Node1&#45;&gt;Node14 -->
<g id="edge19" class="edge">
<title>Node1&#45;&gt;Node14</title>
<path fill="none" stroke="midnightblue" d="M659.46,-168.44C687.68,-159.32 732.54,-144.81 763.97,-134.65"/>
<polygon fill="midnightblue" stroke="midnightblue" points="765.22,-137.92 773.66,-131.52 763.07,-131.26 765.22,-137.92"/>
</g>
<!-- Node16 -->
<g id="node16" class="node">
<title>Node16</title>
<g id="a_node16"><a xlink:href="mover_8hpp.html" target="_top" xlink:title=" ">
<polygon fill="none" stroke="black" points="599,-112.5 599,-131.5 667,-131.5 667,-112.5 599,-112.5"/>
<text text-anchor="middle" x="633" y="-119.5" font-family="Helvetica,sans-Serif" font-size="10.00">mover.hpp</text>
</a>
</g>
</g>
<!-- Node1&#45;&gt;Node16 -->
<g id="edge22" class="edge">
<title>Node1&#45;&gt;Node16</title>
<path fill="none" stroke="midnightblue" d="M633,-168.08C633,-161.01 633,-150.86 633,-141.99"/>
<polygon fill="midnightblue" stroke="midnightblue" points="636.5,-141.75 633,-131.75 629.5,-141.75 636.5,-141.75"/>
</g>
<!-- Node17 -->
<g id="node17" class="node">
<title>Node17</title>
<g id="a_node17"><a xlink:href="pusher__step_8hpp.html" target="_top" xlink:title=" ">
<polygon fill="none" stroke="black" points="483.5,-112.5 483.5,-131.5 580.5,-131.5 580.5,-112.5 483.5,-112.5"/>
<text text-anchor="middle" x="532" y="-119.5" font-family="Helvetica,sans-Serif" font-size="10.00">pusher_step.hpp</text>
</a>
</g>
</g>
<!-- Node1&#45;&gt;Node17 -->
<g id="edge25" class="edge">
<title>Node1&#45;&gt;Node17</title>
<path fill="none" stroke="midnightblue" d="M616.77,-168.32C600.65,-159.7 575.7,-146.36 557.04,-136.39"/>
<polygon fill="midnightblue" stroke="midnightblue" points="558.66,-133.28 548.19,-131.65 555.36,-139.46 558.66,-133.28"/>
</g>
<!-- Node18 -->
<g id="node18" class="node">
<title>Node18</title>
<g id="a_node18"><a xlink:href="sokoban__plus_8hpp.html" target="_top" xlink:title=" ">
<polygon fill="none" stroke="black" points="885,-56.5 885,-75.5 989,-75.5 989,-56.5 885,-56.5"/>
<text text-anchor="middle" x="937" y="-63.5" font-family="Helvetica,sans-Serif" font-size="10.00">sokoban_plus.hpp</text>
</a>
</g>
</g>
<!-- Node1&#45;&gt;Node18 -->
<g id="edge28" class="edge">
<title>Node1&#45;&gt;Node18</title>
<path fill="none" stroke="midnightblue" d="M679.67,-172.71C742.94,-166.21 851.96,-152.44 886,-132 904.76,-120.73 919.28,-99.81 927.94,-84.74"/>
<polygon fill="midnightblue" stroke="midnightblue" points="931.08,-86.3 932.78,-75.84 924.93,-82.96 931.08,-86.3"/>
</g>
<!-- Node19 -->
<g id="node19" class="node">
<title>Node19</title>
<g id="a_node19"><a xlink:href="image_8hpp.html" target="_top" xlink:title=" ">
<polygon fill="none" stroke="black" points="1107,-112.5 1107,-131.5 1175,-131.5 1175,-112.5 1107,-112.5"/>
<text text-anchor="middle" x="1141" y="-119.5" font-family="Helvetica,sans-Serif" font-size="10.00">image.hpp</text>
</a>
</g>
</g>
<!-- Node1&#45;&gt;Node19 -->
<g id="edge30" class="edge">
<title>Node1&#45;&gt;Node19</title>
<path fill="none" stroke="midnightblue" d="M679.74,-174.18C762.06,-168.85 938.43,-155.76 1096.87,-132.02"/>
<polygon fill="midnightblue" stroke="midnightblue" points="1097.43,-135.47 1106.79,-130.51 1096.38,-128.55 1097.43,-135.47"/>
</g>
<!-- Node20 -->
<g id="node20" class="node">
<title>Node20</title>
<g id="a_node20"><a xlink:href="skin_8hpp.html" target="_top" xlink:title=" ">
<polygon fill="none" stroke="black" points="407,-112.5 407,-131.5 465,-131.5 465,-112.5 407,-112.5"/>
<text text-anchor="middle" x="436" y="-119.5" font-family="Helvetica,sans-Serif" font-size="10.00">skin.hpp</text>
</a>
</g>
</g>
<!-- Node1&#45;&gt;Node20 -->
<g id="edge31" class="edge">
<title>Node1&#45;&gt;Node20</title>
<path fill="none" stroke="midnightblue" d="M601.78,-168.44C567.47,-159.04 512.29,-143.91 475.12,-133.72"/>
<polygon fill="midnightblue" stroke="midnightblue" points="475.71,-130.26 465.14,-130.99 473.86,-137.01 475.71,-130.26"/>
</g>
<!-- Node3 -->
<g id="node3" class="node">
<title>Node3</title>
<g id="a_node3"><a xlink:href="tessellation_8hpp.html" target="_top" xlink:title=" ">
<polygon fill="none" stroke="black" points="166.5,-56.5 166.5,-75.5 261.5,-75.5 261.5,-56.5 166.5,-56.5"/>
<text text-anchor="middle" x="214" y="-63.5" font-family="Helvetica,sans-Serif" font-size="10.00">tessellation.hpp</text>
</a>
</g>
</g>
<!-- Node2&#45;&gt;Node3 -->
<g id="edge2" class="edge">
<title>Node2&#45;&gt;Node3</title>
<path fill="none" stroke="midnightblue" d="M154.41,-112.32C165.11,-104.18 181.34,-91.84 194.16,-82.09"/>
<polygon fill="midnightblue" stroke="midnightblue" points="196.54,-84.67 202.39,-75.83 192.31,-79.1 196.54,-84.67"/>
</g>
<!-- Node4 -->
<g id="node4" class="node">
<title>Node4</title>
<g id="a_node4"><a xlink:href="numeric__types_8hpp.html" target="_top" xlink:title=" ">
<polygon fill="none" stroke="black" points="595,-0.5 595,-19.5 705,-19.5 705,-0.5 595,-0.5"/>
<text text-anchor="middle" x="650" y="-7.5" font-family="Helvetica,sans-Serif" font-size="10.00">numeric_types.hpp</text>
</a>
</g>
</g>
<!-- Node3&#45;&gt;Node4 -->
<g id="edge3" class="edge">
<title>Node3&#45;&gt;Node4</title>
<path fill="none" stroke="midnightblue" d="M261.57,-57.35C264.76,-56.88 267.92,-56.43 271,-56 380.86,-40.81 509.08,-26.25 584.68,-17.98"/>
<polygon fill="midnightblue" stroke="midnightblue" points="585.43,-21.42 595,-16.86 584.68,-14.46 585.43,-21.42"/>
</g>
<!-- Node5&#45;&gt;Node3 -->
<g id="edge5" class="edge">
<title>Node5&#45;&gt;Node3</title>
<path fill="none" stroke="midnightblue" d="M234.04,-112.08C230.79,-104.77 226.08,-94.18 222.05,-85.1"/>
<polygon fill="midnightblue" stroke="midnightblue" points="225.15,-83.47 217.89,-75.75 218.75,-86.31 225.15,-83.47"/>
</g>
<!-- Node6 -->
<g id="node6" class="node">
<title>Node6</title>
<g id="a_node6"><a xlink:href="tile__shape_8hpp.html" target="_top" xlink:title=" ">
<polygon fill="none" stroke="black" points="280,-56.5 280,-75.5 368,-75.5 368,-56.5 280,-56.5"/>
<text text-anchor="middle" x="324" y="-63.5" font-family="Helvetica,sans-Serif" font-size="10.00">tile_shape.hpp</text>
</a>
</g>
</g>
<!-- Node5&#45;&gt;Node6 -->
<g id="edge6" class="edge">
<title>Node5&#45;&gt;Node6</title>
<path fill="none" stroke="midnightblue" d="M251.82,-112.32C265.23,-103.9 285.82,-90.97 301.59,-81.07"/>
<polygon fill="midnightblue" stroke="midnightblue" points="303.61,-83.94 310.22,-75.65 299.89,-78.01 303.61,-83.94"/>
</g>
<!-- Node8&#45;&gt;Node3 -->
<g id="edge9" class="edge">
<title>Node8&#45;&gt;Node3</title>
<path fill="none" stroke="midnightblue" d="M68.41,-112.44C97.77,-103.28 144.52,-88.69 177.1,-78.52"/>
<polygon fill="midnightblue" stroke="midnightblue" points="178.21,-81.84 186.72,-75.52 176.13,-75.16 178.21,-81.84"/>
</g>
<!-- Node10&#45;&gt;Node3 -->
<g id="edge15" class="edge">
<title>Node10&#45;&gt;Node3</title>
<path fill="none" stroke="midnightblue" d="M320.03,-112.44C299.39,-103.6 266.94,-89.69 243.37,-79.59"/>
<polygon fill="midnightblue" stroke="midnightblue" points="244.44,-76.24 233.87,-75.52 241.68,-82.67 244.44,-76.24"/>
</g>
<!-- Node10&#45;&gt;Node6 -->
<g id="edge16" class="edge">
<title>Node10&#45;&gt;Node6</title>
<path fill="none" stroke="midnightblue" d="M337.36,-112.08C335.21,-104.85 332.12,-94.41 329.45,-85.4"/>
<polygon fill="midnightblue" stroke="midnightblue" points="332.79,-84.34 326.59,-75.75 326.08,-86.33 332.79,-84.34"/>
</g>
<!-- Node11 -->
<g id="node11" class="node">
<title>Node11</title>
<g id="a_node11"><a xlink:href="direction_8hpp.html" target="_top" xlink:title=" ">
<polygon fill="none" stroke="black" points="504,-56.5 504,-75.5 584,-75.5 584,-56.5 504,-56.5"/>
<text text-anchor="middle" x="544" y="-63.5" font-family="Helvetica,sans-Serif" font-size="10.00">direction.hpp</text>
</a>
</g>
</g>
<!-- Node10&#45;&gt;Node11 -->
<g id="edge12" class="edge">
<title>Node10&#45;&gt;Node11</title>
<path fill="none" stroke="midnightblue" d="M372.32,-112.44C407.39,-103.16 463.5,-88.31 501.96,-78.13"/>
<polygon fill="midnightblue" stroke="midnightblue" points="503.06,-81.46 511.83,-75.52 501.26,-74.69 503.06,-81.46"/>
</g>
<!-- Node12 -->
<g id="node12" class="node">
<title>Node12</title>
<g id="a_node12"><a xlink:href="game__config_8hpp.html" target="_top" xlink:title=" ">
<polygon fill="none" stroke="black" points="386,-56.5 386,-75.5 486,-75.5 486,-56.5 386,-56.5"/>
<text text-anchor="middle" x="436" y="-63.5" font-family="Helvetica,sans-Serif" font-size="10.00">game_config.hpp</text>
</a>
</g>
</g>
<!-- Node10&#45;&gt;Node12 -->
<g id="edge13" class="edge">
<title>Node10&#45;&gt;Node12</title>
<path fill="none" stroke="midnightblue" d="M355.42,-112.32C370.54,-103.82 393.82,-90.73 411.47,-80.8"/>
<polygon fill="midnightblue" stroke="midnightblue" points="413.61,-83.61 420.61,-75.65 410.18,-77.51 413.61,-83.61"/>
</g>
<!-- Node12&#45;&gt;Node4 -->
<g id="edge14" class="edge">
<title>Node12&#45;&gt;Node4</title>
<path fill="none" stroke="midnightblue" d="M469.91,-56.44C506.85,-47.12 566.05,-32.18 606.42,-22"/>
<polygon fill="midnightblue" stroke="midnightblue" points="607.41,-25.36 616.25,-19.52 605.7,-18.57 607.41,-25.36"/>
</g>
<!-- Node13&#45;&gt;Node4 -->
<g id="edge18" class="edge">
<title>Node13&#45;&gt;Node4</title>
<path fill="none" stroke="midnightblue" d="M681.73,-56.08C676.36,-48.46 668.48,-37.26 661.92,-27.94"/>
<polygon fill="midnightblue" stroke="midnightblue" points="664.78,-25.91 656.16,-19.75 659.05,-29.94 664.78,-25.91"/>
</g>
<!-- Node15 -->
<g id="node15" class="node">
<title>Node15</title>
<g id="a_node15"><a xlink:href="board__manager_8hpp.html" target="_top" xlink:title=" ">
<polygon fill="none" stroke="black" points="753.5,-56.5 753.5,-75.5 866.5,-75.5 866.5,-56.5 753.5,-56.5"/>
<text text-anchor="middle" x="810" y="-63.5" font-family="Helvetica,sans-Serif" font-size="10.00">board_manager.hpp</text>
</a>
</g>
</g>
<!-- Node14&#45;&gt;Node15 -->
<g id="edge20" class="edge">
<title>Node14&#45;&gt;Node15</title>
<path fill="none" stroke="midnightblue" d="M801.65,-112.08C802.98,-104.93 804.88,-94.64 806.54,-85.69"/>
<polygon fill="midnightblue" stroke="midnightblue" points="810,-86.22 808.38,-75.75 803.12,-84.95 810,-86.22"/>
</g>
<!-- Node15&#45;&gt;Node4 -->
<g id="edge21" class="edge">
<title>Node15&#45;&gt;Node4</title>
<path fill="none" stroke="midnightblue" d="M784.65,-56.44C757.73,-47.36 715,-32.94 684.91,-22.78"/>
<polygon fill="midnightblue" stroke="midnightblue" points="685.83,-19.4 675.23,-19.52 683.59,-26.03 685.83,-19.4"/>
</g>
<!-- Node16&#45;&gt;Node4 -->
<g id="edge24" class="edge">
<title>Node16&#45;&gt;Node4</title>
<path fill="none" stroke="midnightblue" d="M631.51,-112.48C629.59,-99.96 626.97,-75.92 631,-56 632.89,-46.65 636.79,-36.83 640.57,-28.75"/>
<polygon fill="midnightblue" stroke="midnightblue" points="643.79,-30.14 645.12,-19.63 637.53,-27.01 643.79,-30.14"/>
</g>
<!-- Node16&#45;&gt;Node11 -->
<g id="edge23" class="edge">
<title>Node16&#45;&gt;Node11</title>
<path fill="none" stroke="midnightblue" d="M618.7,-112.32C604.82,-103.9 583.51,-90.97 567.2,-81.07"/>
<polygon fill="midnightblue" stroke="midnightblue" points="568.63,-77.85 558.26,-75.65 565,-83.83 568.63,-77.85"/>
</g>
<!-- Node17&#45;&gt;Node11 -->
<g id="edge26" class="edge">
<title>Node17&#45;&gt;Node11</title>
<path fill="none" stroke="midnightblue" d="M533.98,-112.08C535.57,-104.93 537.86,-94.64 539.85,-85.69"/>
<polygon fill="midnightblue" stroke="midnightblue" points="543.3,-86.27 542.06,-75.75 536.47,-84.75 543.3,-86.27"/>
</g>
<!-- Node17&#45;&gt;Node12 -->
<g id="edge27" class="edge">
<title>Node17&#45;&gt;Node12</title>
<path fill="none" stroke="midnightblue" d="M516.58,-112.32C501.46,-103.82 478.18,-90.73 460.53,-80.8"/>
<polygon fill="midnightblue" stroke="midnightblue" points="461.82,-77.51 451.39,-75.65 458.39,-83.61 461.82,-77.51"/>
</g>
<!-- Node18&#45;&gt;Node4 -->
<g id="edge29" class="edge">
<title>Node18&#45;&gt;Node4</title>
<path fill="none" stroke="midnightblue" d="M891.52,-56.44C841.04,-46.94 759.54,-31.61 705.38,-21.42"/>
<polygon fill="midnightblue" stroke="midnightblue" points="705.74,-17.93 695.26,-19.52 704.44,-24.81 705.74,-17.93"/>
</g>
<!-- Node20&#45;&gt;Node3 -->
<g id="edge34" class="edge">
<title>Node20&#45;&gt;Node3</title>
<path fill="none" stroke="midnightblue" d="M406.98,-113.94C369.36,-104.79 303.36,-88.74 259.16,-77.99"/>
<polygon fill="midnightblue" stroke="midnightblue" points="259.8,-74.54 249.26,-75.58 258.15,-81.34 259.8,-74.54"/>
</g>
<!-- Node20&#45;&gt;Node6 -->
<g id="edge35" class="edge">
<title>Node20&#45;&gt;Node6</title>
<path fill="none" stroke="midnightblue" d="M418.01,-112.32C399.96,-103.62 371.95,-90.12 351.2,-80.11"/>
<polygon fill="midnightblue" stroke="midnightblue" points="352.48,-76.84 341.95,-75.65 349.44,-83.15 352.48,-76.84"/>
</g>
<!-- Node20&#45;&gt;Node11 -->
<g id="edge32" class="edge">
<title>Node20&#45;&gt;Node11</title>
<path fill="none" stroke="midnightblue" d="M453.35,-112.32C470.67,-103.66 497.52,-90.24 517.5,-80.25"/>
<polygon fill="midnightblue" stroke="midnightblue" points="519.31,-83.26 526.69,-75.65 516.18,-77 519.31,-83.26"/>
</g>
<!-- Node20&#45;&gt;Node12 -->
<g id="edge33" class="edge">
<title>Node20&#45;&gt;Node12</title>
<path fill="none" stroke="midnightblue" d="M436,-112.08C436,-105.01 436,-94.86 436,-85.99"/>
<polygon fill="midnightblue" stroke="midnightblue" points="439.5,-85.75 436,-75.75 432.5,-85.75 439.5,-85.75"/>
</g>
</g>
</svg>
